<?xml version="1.0" encoding="UTF-8"?>
<svg version="1.1" xmlns="http://www.w3.org/2000/svg" width="645" height="213">
<path d="M0 0 C9.04985762 9.53956853 8.88973122 24.61306032 10.3125 37 C10.88677734 36.80229004 11.46105469 36.60458008 12.05273438 36.40087891 C33.39735666 29.15167835 56.42186273 27.1220231 78.25 33.75 C83.71558194 35.21088028 88.19710636 34.74315553 93.74658203 33.87524414 C106.35177079 31.97422615 123.07082094 30.29504043 134.34375 37.25390625 C138.79803315 40.71730014 141.61414306 45.1006791 144.3125 50 C146.21174011 49.86011915 146.21174011 49.86011915 148.3125 49 C150.07229007 46.83106283 150.07229007 46.83106283 151.625 44.1875 C156.09405424 37.52195314 160.24340338 35.29810251 168.12216187 33.3991394 C171.74568255 32.73883501 175.28677608 32.81386608 178.95703125 32.91015625 C180.62174143 32.9306136 182.28645514 32.9507862 183.95117188 32.97070312 C186.51960618 33.01366002 189.08779561 33.06170689 191.65600586 33.11645508 C201.90946735 33.31859674 211.66106857 32.97702382 221.76521301 31.09144592 C239.97864038 27.7096643 260.63040671 29.65895335 277.3125 38 C281.66175165 38.44380119 284.63526592 38.0152063 288.5 36.125 C300.85325006 30.20048211 316.82253464 30.54958164 329.67578125 34.77734375 C335.54800235 37.3540434 338.80164751 41.30826478 341.2109375 47.1953125 C341.47132813 47.91460937 341.73171875 48.63390625 342 49.375 C342.86466181 53.06305985 342.86466181 53.06305985 345.3125 54 C345.44785156 53.3709375 345.58320313 52.741875 345.72265625 52.09375 C347.41537275 45.3634281 349.8315373 40.4102137 355.3125 36 C363.43868851 31.79830827 372.87310993 31.84286476 381.8125 31.9375 C382.63492188 31.94201172 383.45734375 31.94652344 384.3046875 31.95117188 C386.30732396 31.96281511 388.30992227 31.98074444 390.3125 32 C390.47105469 31.154375 390.62960937 30.30875 390.79296875 29.4375 C392.7619355 19.86462299 395.04378539 12.71271594 403.3125 7 C416.54499494 2.52233757 431.08067433 2.6115553 444.3125 7 C450.4806547 10.27289841 453.24156288 15.5221872 455.3125 22 C456.03950345 25.12572605 456.72552787 28.24254247 457.30859375 31.3984375 C458.61229408 34.77689827 460.11719114 35.43603106 463.3125 37 C468.95744018 40.57128869 473.33127786 43.37805895 475.0625 50.0625 C477.92017667 62.87494044 478.16369418 78.23053359 471.6875 89.9375 C468.77954253 92.46283149 465.86278557 93.57862619 462.23828125 94.8125 C460.02519961 95.86504985 460.02519961 95.86504985 459.69213867 98.57421875 C459.56685791 99.37472656 459.44157715 100.17523438 459.3125 101 C460.35422363 100.98428955 460.35422363 100.98428955 461.41699219 100.96826172 C464.63212307 100.92611181 467.8471955 100.90048939 471.0625 100.875 C472.70025391 100.84986328 472.70025391 100.84986328 474.37109375 100.82421875 C485.40851976 100.75890854 497.19074767 101.06250261 506.02734375 108.4296875 C513.55153553 116.1194483 513.56587412 125.96126119 513.625 136.125 C513.63063965 137.05513916 513.6362793 137.98527832 513.64208984 138.94360352 C513.54553482 148.16624446 512.50972046 156.79612444 506.3125 164 C498.45831403 170.7566578 488.90022342 171.34893896 478.9375 171.25 C477.93235352 171.24395752 476.92720703 171.23791504 475.89160156 171.23168945 C467.04525871 171.12285807 458.20919676 170.76159691 449.37469482 170.30627441 C447.85244579 170.22807848 446.330022 170.15320258 444.80743408 170.08190918 C434.18508263 169.57115436 423.49154324 168.92535072 413.9375 163.8125 C410.51330613 161.9876724 408.25495924 161.34292346 404.3125 162 C402.34825305 162.87939089 400.49084813 163.84382252 398.6328125 164.9296875 C391.36433178 168.28248837 383.55416192 168.53748891 375.6875 169.0625 C373.94980347 169.1860083 373.94980347 169.1860083 372.17700195 169.31201172 C369.89862645 169.47355326 367.62006543 169.63250406 365.34130859 169.78857422 C362.87831319 169.96050345 360.41770525 170.14586291 357.95703125 170.34765625 C338.55049765 171.9045646 338.55049765 171.9045646 330.3125 170 C330.33570313 171.02480469 330.35890625 172.04960937 330.3828125 173.10546875 C330.40158036 174.46613851 330.41977947 175.8268162 330.4375 177.1875 C330.45425781 177.86103516 330.47101563 178.53457031 330.48828125 179.22851562 C330.53965456 184.49427982 329.78273054 188.03969261 326.625 192.25 C323.44649976 194.65535153 321.28400285 194.93268639 317.3125 195 C313.43309622 193.83617886 311.06976049 192.85497152 308.375 189.8125 C306.55222147 184.98749801 306.4998052 180.86919804 308.5625 176.125 C310.50109062 173.77099711 311.39716794 172.86672034 314.3125 172 C321.26241364 171.47495682 321.26241364 171.47495682 324.3125 173 C324.6425 171.68 324.9725 170.36 325.3125 169 C324.72984375 168.98582031 324.1471875 168.97164062 323.546875 168.95703125 C312.72966505 168.32772816 304.02902442 164.09630576 295.6640625 157.35546875 C292.59875544 155.5885891 290.80609529 155.53807405 287.3125 156 C284.57031628 157.34895231 284.57031628 157.34895231 282 159.25 C273.36604938 165.04106444 264.87345895 169 254.3125 169 C254.3125 177.25 254.3125 185.5 254.3125 194 C252.6625 194 251.0125 194 249.3125 194 C249.3125 189.71 249.3125 185.42 249.3125 181 C243.3725 181 237.4325 181 231.3125 181 C231.3125 185.29 231.3125 189.58 231.3125 194 C229.9925 194 228.6725 194 227.3125 194 C227.3125 186.08 227.3125 178.16 227.3125 170 C225.600625 169.9175 223.88875 169.835 222.125 169.75 C208.65051251 168.60593974 197.49974391 163.5857009 187.0390625 155.234375 C185.21934122 153.80533885 185.21934122 153.80533885 182.3125 153 C178.83963349 155.78268587 177.43847055 159.70389067 175.6953125 163.66796875 C175.35627899 164.42161209 175.01724548 165.17525543 174.66793823 165.95173645 C173.5846242 168.36080717 172.51015454 170.77366605 171.4375 173.1875 C170.37166722 175.58332774 169.30370424 177.97807395 168.22848511 180.3697052 C167.56059454 181.85540907 166.89789241 183.34346112 166.2414856 184.83427429 C162.59435471 192.95014377 158.62795009 201.12089775 150.1875 204.96875 C138.54481043 208.89815773 121.59405649 209.14488565 110.3125 204 C105.29937428 201.16061551 103.14594756 197.40384543 101.3125 192 C99.98983088 186.53804262 99.90135028 180.9901711 99.59375 175.3984375 C99.44875669 172.0139265 99.44875669 172.0139265 98.3125 169 C97.41982422 169.03029297 96.52714844 169.06058594 95.60742188 169.09179688 C84.843664 169.44894045 74.07914306 169.74482498 63.3125 170 C62.1721933 170.02830902 62.1721933 170.02830902 61.0088501 170.05718994 C37.56040713 170.62982102 17.16069943 170.91180126 -1.93359375 155.19921875 C-3.97495662 153.80345394 -5.20811271 153.17147164 -7.6875 153 C-11.15679202 154.72366724 -14.1068773 157.04343282 -17.1875 159.375 C-35.4970744 172.26254269 -60.21926571 172.69384319 -81.60888672 169.37548828 C-97.68456575 166.47151901 -111.50843663 157.59920065 -121 144.375 C-133.13001822 125.06499119 -134.46693199 98.90572996 -129.6875 77 C-125.53422889 61.1656539 -117.97192009 47.72398724 -103.875 38.6875 C-93.85672462 33.22252417 -83.70604973 31.28998559 -72.4375 30.25 C-71.20386719 30.12496094 -69.97023437 29.99992187 -68.69921875 29.87109375 C-65.69629907 29.56847394 -62.69275073 29.27833521 -59.6875 29 C-59.54501831 28.15405273 -59.54501831 28.15405273 -59.3996582 27.29101562 C-58.95107228 24.69054838 -58.47574407 22.09563047 -58 19.5 C-57.85111328 18.613125 -57.70222656 17.72625 -57.54882812 16.8125 C-56.11039757 9.14087039 -53.55207861 2.86192192 -47.125 -1.875 C-34.8396571 -8.7335467 -11.21686158 -8.72655089 0 0 Z M231.3125 170 C231.3125 171.98 231.3125 173.96 231.3125 176 C237.2525 176 243.1925 176 249.3125 176 C249.3125 174.02 249.3125 172.04 249.3125 170 C243.3725 170 237.4325 170 231.3125 170 Z M314.0625 177.625 C312.09264166 179.92308586 312.09264166 179.92308586 311.8125 183 C312.1182759 186.04923991 312.1182759 186.04923991 313.875 188.4375 C316.33873116 190.33441535 316.33873116 190.33441535 319.9375 189.9375 C323.56766924 189.3249155 323.56766924 189.3249155 325.3125 186 C325.15394428 181.04978561 325.15394428 181.04978561 322.5 177.0625 C319.15727352 175.43889 317.0788526 175.44652312 314.0625 177.625 Z " fill="#000000" transform="translate(131.6875,6)"/>
<path d="M0 0 C2.67066768 2.53844631 3.00247116 4.0238465 3.38768005 7.74108887 C3.40852563 9.27452623 3.41279545 10.80824275 3.40405273 12.34179688 C3.41091599 13.18141968 3.41777924 14.02104248 3.42485046 14.8861084 C3.44315827 17.66382754 3.43927213 20.44098339 3.43359375 23.21875 C3.43815674 25.15726911 3.44346266 27.09578661 3.44947815 29.03430176 C3.45841938 33.10301264 3.45597823 37.1715274 3.44604492 41.24023438 C3.43460964 46.4271972 3.45467764 51.61347371 3.48396206 56.80034637 C3.50241779 60.80867753 3.50201207 64.81684753 3.49632454 68.82521057 C3.49617217 70.73556982 3.50214612 72.6459406 3.51461601 74.55625916 C3.60313857 90.35441943 1.92863097 102.73672206 -9 115 C-19.72710662 125.07187323 -31.36936206 128.7289924 -45.8984375 128.3046875 C-57.91018473 127.62646939 -67.90797233 122.50043176 -76.09765625 113.76171875 C-86.38528556 101.11514259 -88.2780548 87.8956023 -87 72 C-84.86405341 60.14357792 -77.82032826 49.90409482 -68 43 C-57.23533173 36.74902371 -46.00622494 35.10338223 -33.75390625 37.68359375 C-26.80996298 40.0573389 -20.21066161 43.78933839 -15 49 C-14.99635437 48.44511902 -14.99270874 47.89023804 -14.98895264 47.31854248 C-14.9471416 41.54315306 -14.87780659 35.7685594 -14.79248047 29.99365234 C-14.76425501 27.83845987 -14.74304835 25.68316357 -14.72900391 23.52783203 C-14.70759653 20.4294717 -14.6609568 17.33236173 -14.609375 14.234375 C-14.60814636 13.27070007 -14.60691772 12.30702515 -14.60565186 11.31414795 C-14.45905365 4.61839846 -14.45905365 4.61839846 -12.08691406 1.42285156 C-8.11219203 -1.28710164 -4.586097 -1.49842773 0 0 Z " fill="#FBFBFB" transform="translate(112,24)"/>
<path d="M0 0 C10.49901241 6.87866331 17.46951124 16.13652957 20.86216736 28.28065491 C21.75331249 32.78265332 21.61916559 37.36395308 21.62890625 41.9375 C21.63889145 43.57311638 21.63889145 43.57311638 21.64907837 45.24177551 C21.65916835 47.53706177 21.66389653 49.83237714 21.66357422 52.12768555 C21.66796753 55.64355173 21.70438221 59.15818204 21.7421875 62.67382812 C21.7480523 64.9075478 21.75202395 67.14127342 21.75390625 69.375 C21.76827728 70.42608444 21.78264832 71.47716888 21.79745483 72.56010437 C21.75189832 79.80191202 21.75189832 79.80191202 19.44775391 83.09106445 C16.6159053 84.88623701 14.64972885 85.38852594 11.29296875 85.45703125 C7.76390808 83.85291277 6.46523967 82.71543763 4.29296875 79.45703125 C3.89909087 77.13315178 3.5581079 74.79909376 3.29296875 72.45703125 C2.67421875 73.15828125 2.05546875 73.85953125 1.41796875 74.58203125 C-6.66462492 82.61883119 -15.9190576 85.47322806 -27.01953125 85.83203125 C-38.64847616 85.64726152 -47.99132711 81.48323804 -56.609375 73.75 C-67.13534102 62.80944451 -69.21343274 49.72846208 -68.98046875 35.26953125 C-68.49743576 23.00718883 -62.7489877 12.94446619 -53.89453125 4.64453125 C-38.79907953 -7.75948334 -16.95119717 -9.66193778 0 0 Z " fill="#FBFBFB" transform="translate(204.70703125,66.54296875)"/>
<path d="M0 0 C8.77495371 6.81794965 14.93635899 16.26380377 17.125 27.25 C18.54975499 42.31147247 16.96600171 54.73481577 8.125 67.25 C7.5475 68.11625 6.97 68.9825 6.375 69.875 C-1.31498866 77.99221025 -12.33226493 82.74103226 -23.40625 83.48828125 C-38.44166185 83.76945529 -50.26976627 80.34651459 -61.5625 70.0625 C-70.16540261 61.01944888 -73.2733303 50.04696266 -73.1875 37.875 C-73.18186035 37.03718994 -73.1762207 36.19937988 -73.17041016 35.33618164 C-72.95990005 24.6137137 -69.81122735 17.13046879 -63.875 8.25 C-63.2975 7.363125 -62.72 6.47625 -62.125 5.5625 C-45.84300407 -11.17177359 -19.04368837 -12.95072783 0 0 Z " fill="#EEA60C" transform="translate(396.875,68.75)"/>
<path d="M0 0 C2.56450532 2.18617787 3.83870225 3.94858532 4.35522461 7.31552124 C4.49395067 10.24198202 4.50074353 13.14463351 4.46875 16.07421875 C4.47579956 17.15322952 4.48284912 18.2322403 4.4901123 19.34394836 C4.51954243 23.94874455 4.50303247 28.5531161 4.49072266 33.15795898 C4.48832794 36.52613155 4.50934221 39.89363016 4.53125 43.26171875 C4.51993042 44.28810959 4.50861084 45.31450043 4.49694824 46.37199402 C4.54853327 53.82912175 5.61302707 61.16917312 10.7208252 66.94633484 C17.33596492 73.15953075 24.60129987 73.44520147 33.359375 73.31640625 C40.67534073 72.68057661 45.26659709 69.56870931 50 64 C51.9272704 60.83864243 52.25786095 58.44080631 52.28710938 54.76000977 C52.30723083 53.19302086 52.30723083 53.19302086 52.32775879 51.59437561 C52.33303589 50.47139572 52.33831299 49.34841583 52.34375 48.19140625 C52.3583728 47.03253403 52.37299561 45.8736618 52.38806152 44.67967224 C52.43458239 40.97398311 52.46877162 37.2683477 52.5 33.5625 C52.54112993 28.68860319 52.59480401 23.81508453 52.65625 18.94140625 C52.6615271 17.82045059 52.6668042 16.69949493 52.67224121 15.54457092 C52.69236267 13.97285378 52.69236267 13.97285378 52.71289062 12.36938477 C52.72018188 11.45101334 52.72747314 10.53264191 52.73498535 9.58644104 C53.15155854 5.5208469 54.06258689 2.80349695 57.1875 0.125 C60.89950586 -1.35980235 63.16286868 -0.99481182 67 0 C69.05938216 1.57885966 69.84571211 2.69142423 71 5 C71.11363273 7.47540281 71.16780074 9.9233439 71.17700195 12.3996582 C71.18357315 13.16245087 71.19014435 13.92524353 71.19691467 14.71115112 C71.21666062 17.24102879 71.22831315 19.77084705 71.23828125 22.30078125 C71.24235678 23.16427877 71.2464323 24.0277763 71.25063133 24.91744041 C71.27149767 29.48784522 71.2857969 34.05821995 71.29516602 38.62866211 C71.30623131 43.34998887 71.34063076 48.07084442 71.38033772 52.79200459 C71.40648064 56.42171608 71.41485577 60.05131492 71.41844749 63.68111229 C71.42331954 65.42144134 71.43495114 67.16176516 71.45348549 68.90200233 C71.47782807 71.33910088 71.4769213 73.77497536 71.4699707 76.2121582 C71.48278076 76.92974808 71.49559082 77.64733795 71.50878906 78.38667297 C71.47154396 81.97343811 71.06500495 83.89866312 69.10929871 86.94743347 C67 89 67 89 64.78125 89.62890625 C58.6431853 89.45022971 58.6431853 89.45022971 55.5 87.25 C54.04039589 85.06059384 53.55229279 83.52780161 53 81 C52.45472656 81.39832031 51.90945313 81.79664063 51.34765625 82.20703125 C40.36409111 89.92368983 30.23228836 91.32752105 17 90 C6.63323242 87.84634054 -2.00024757 81.67821334 -8 73 C-15.31236021 60.54012306 -14.34512822 45.66544671 -14.31567383 31.71606445 C-14.31248279 28.54539555 -14.33614752 25.37563426 -14.36132812 22.20507812 C-14.3635986 20.17968867 -14.36430579 18.15429672 -14.36328125 16.12890625 C-14.372491 15.18616348 -14.38170074 14.24342072 -14.39118958 13.27210999 C-14.35653341 8.36564324 -14.2253426 4.96976696 -11 1 C-7.44724114 -1.79145339 -4.20120319 -1.12532228 0 0 Z " fill="#EDA50C" transform="translate(447,62)"/>
<path d="M0 0 C3.00011189 3.29308621 5.0500963 6.73269392 7.02441406 10.70825195 C7.86483246 12.38942863 7.86483246 12.38942863 8.722229 14.10456848 C9.32015775 15.31574186 9.91795335 16.52698098 10.515625 17.73828125 C11.13714887 18.98693091 11.75920713 20.23531471 12.3817749 21.48344421 C14.0113174 24.753931 15.63361731 28.02795786 17.25439453 31.30279541 C18.91260162 34.65001126 20.57768937 37.99380002 22.2421875 41.33789062 C25.50150495 47.88860729 28.75317255 54.44308218 32 61 C35.66590771 53.79755424 39.16405839 46.56857353 42.34765625 39.140625 C43.12548313 37.3475834 43.90348294 35.55461681 44.68164062 33.76171875 C45.87752808 30.99599836 47.07135143 28.22942174 48.26196289 25.46142578 C49.43076052 22.7478637 50.60748178 20.03784401 51.78515625 17.328125 C52.13425552 16.51023499 52.4833548 15.69234497 52.84303284 14.84967041 C58.95507809 0.82667056 58.95507809 0.82667056 63.9375 -1.1875 C67.63421175 -0.96117071 69.87740676 0.03930192 73 2 C74.76214922 5.52429844 74.55486284 9.23378985 73.38214111 12.96673584 C72.47694082 15.15563409 71.49534193 17.29126973 70.4765625 19.4296875 C69.91752731 20.6456385 69.91752731 20.6456385 69.34719849 21.88615417 C68.54036585 23.63761458 67.72760044 25.38635169 66.9095459 27.13259888 C65.1560514 30.87616717 63.43122222 34.63269687 61.7052002 38.38899231 C60.80772341 40.34208512 59.90886201 42.29454222 59.00866699 44.24638367 C54.84680647 53.28413199 50.83819124 62.38524708 46.86425781 71.50686646 C43.94905636 78.19309879 41.01158769 84.86962523 38.07727051 91.54748535 C37.35462284 93.19266544 36.63254306 94.83809509 35.91101074 96.48376465 C33.82331396 101.24369457 31.72298439 105.99761548 29.60217285 110.7428894 C28.95717895 112.19146675 28.31669819 113.64206312 27.68103027 115.09475708 C26.81238912 117.07790259 25.9279797 119.05322144 25.0390625 121.02734375 C24.54615723 122.13843506 24.05325195 123.24952637 23.54541016 124.39428711 C21.89629198 127.17486188 21.05288638 128.06010501 18 129 C13.85086917 128.74067932 10.87862457 128.09185601 8 125 C6.20163077 119.30034705 7.95892453 115.86663309 10.4375 110.78515625 C11.17448063 109.19596422 11.91145975 107.60677149 12.6484375 106.01757812 C13.82255911 103.53595665 15.00252699 101.0572028 16.18457031 98.5793457 C17.32494987 96.17524427 18.44420026 93.76208861 19.5625 91.34765625 C19.92077881 90.61515152 20.27905762 89.88264679 20.64819336 89.12794495 C22.85541517 84.34806929 23.37583975 81.26707602 22 76 C21.02428965 73.42948158 21.02428965 73.42948158 19.69921875 71.05859375 C18.98463501 69.70580322 18.98463501 69.70580322 18.25561523 68.32568359 C17.73813721 67.37258301 17.22065918 66.41948242 16.6875 65.4375 C16.15133057 64.43025879 15.61516113 63.42301758 15.06274414 62.38525391 C13.38829845 59.24954937 11.69744033 56.12330993 10 53 C9.48373047 52.0497998 8.96746094 51.09959961 8.43554688 50.12060547 C6.93867676 47.37071021 5.43846805 44.62266026 3.9375 41.875 C3.20660156 40.53381104 3.20660156 40.53381104 2.4609375 39.16552734 C-0.55746305 33.62842542 -0.55746305 33.62842542 -3.61132812 28.11083984 C-5.19485104 25.27012168 -6.75517258 22.41764219 -8.3125 19.5625 C-9.04255249 18.27545166 -9.04255249 18.27545166 -9.78735352 16.96240234 C-12.51087145 11.91253573 -13.68197978 8.77853498 -12 3 C-8.79905159 -1.36492965 -4.94820661 -1.41377332 0 0 Z " fill="#FAFAFA" transform="translate(247,62)"/>
<path d="M0 0 C2.66336934 1.65352453 3.60167945 2.29644537 5 5 C5.62610381 9.61646185 5.4687862 14.16478871 5.3125 18.8125 C5.28994141 20.07771484 5.26738281 21.34292969 5.24414062 22.64648438 C5.18529078 25.76552619 5.1031137 28.88215902 5 32 C6.25296875 31.94199219 7.5059375 31.88398437 8.796875 31.82421875 C10.4478794 31.77731522 12.09892411 31.73181569 13.75 31.6875 C14.575 31.64560547 15.4 31.60371094 16.25 31.56054688 C22.37462353 31.43706656 22.37462353 31.43706656 25.58203125 34.32421875 C27 37 27 37 26.9375 40.125 C25.99396912 43.01849469 25.42330523 44.2291231 23 46 C19.38132441 47.2062252 16.07493749 47.10816918 12.3125 47.0625 C11.2596582 47.05573242 11.2596582 47.05573242 10.18554688 47.04882812 C8.45699462 47.03706927 6.72848635 47.01913454 5 47 C5.04431477 52.97791025 5.11431863 58.95478057 5.20751953 64.93212891 C5.23564035 66.96296892 5.25689886 68.99391657 5.27099609 71.02490234 C5.29254898 73.95465855 5.33926222 76.88313265 5.390625 79.8125 C5.39185364 80.71178223 5.39308228 81.61106445 5.39434814 82.53759766 C5.52855849 88.39295217 6.51395716 93.17428491 10 98 C13.42391352 100.28260901 14.85018994 100.21714914 18.875 100.3125 C23.01072739 100.6079091 24.70958121 100.81011079 28.25 103.125 C30.4973203 106.8170262 30.75933191 108.74774133 30 113 C27.25671475 116.58978469 25.79824499 117.86457593 21.29296875 118.62890625 C19.92433627 118.63884909 18.5551396 118.61556256 17.1875 118.5625 C16.47553467 118.54735352 15.76356934 118.53220703 15.0300293 118.51660156 C9.47345969 118.27985389 5.46210312 117.26384013 1 114 C0.13375 113.46375 -0.7325 112.9275 -1.625 112.375 C-8.27690386 105.72309614 -12.03547812 97.35551568 -12.22705078 87.98266602 C-12.22673737 86.07305015 -12.21563179 84.16341404 -12.1953125 82.25390625 C-12.1924826 81.24279282 -12.18965271 80.23167938 -12.18673706 79.18992615 C-12.17559889 75.98066048 -12.15050597 72.77168042 -12.125 69.5625 C-12.11496198 67.37825926 -12.10583757 65.19401411 -12.09765625 63.00976562 C-12.07568043 57.67308068 -12.04226656 52.33656076 -12 47 C-13.98974609 47.02644857 -15.97949219 47.05289714 -17.96923828 47.0793457 C-20.68202134 46.97335214 -22.63691858 46.3205455 -25 45 C-27.32749345 41.50875983 -27.50299316 40.10777749 -27 36 C-25.6875 33.625 -25.6875 33.625 -23 32 C-20.33129883 31.84130859 -20.33129883 31.84130859 -17.33203125 31.8984375 C-16.33534424 31.91310059 -15.33865723 31.92776367 -14.31176758 31.94287109 C-13.16744263 31.9711499 -13.16744263 31.9711499 -12 32 C-12.02618408 31.20827393 -12.05236816 30.41654785 -12.0793457 29.60083008 C-12.18344122 26.00492283 -12.248369 22.40933269 -12.3125 18.8125 C-12.3753418 16.94368164 -12.3753418 16.94368164 -12.43945312 15.03710938 C-12.57762096 4.7297889 -12.57762096 4.7297889 -9.69921875 1.67578125 C-6.1113373 -0.55171679 -4.15042828 -0.74114791 0 0 Z " fill="#EEA60C" transform="translate(559,33)"/>
<path d="M0 0 C6.06014905 5.43235348 8.92803681 11.56797173 9.44140625 19.671875 C9.79411491 29.93310512 9.02575835 37.18777729 2.47265625 45.28125 C-3.34303608 51.35938332 -8.28420064 53.59177747 -16.73461914 54.04858398 C-25.56838576 54.23810582 -32.2642334 52.66675143 -38.95703125 46.69921875 C-46.1237092 39.16082513 -47.40050706 31.93111313 -47.32226562 21.82275391 C-47.01447441 12.84748313 -43.9322652 6.81943644 -37.828125 0.2578125 C-27.21042104 -9.26150829 -10.93229597 -8.44054063 0 0 Z " fill="#000000" transform="translate(387.90234375,82.46875)"/>
<path d="M0 0 C5.83177236 4.5221421 10.75115926 10.13319507 12.03515625 17.578125 C13.11527218 28.47847861 12.68034784 37.3568239 6.03515625 46.578125 C1.22052852 52.09625998 -4.59195401 55.20335947 -11.8671875 56.01171875 C-13.21204321 56.03473865 -14.55743936 56.03559963 -15.90234375 56.015625 C-16.60528564 56.00950195 -17.30822754 56.00337891 -18.0324707 55.99707031 C-23.5873278 55.82950298 -27.50716527 54.8387287 -31.96484375 51.578125 C-32.83109375 51.041875 -33.69734375 50.505625 -34.58984375 49.953125 C-42.32981108 42.21315767 -44.26035712 34.2697531 -44.28173828 23.72290039 C-44.17523056 17.9261189 -43.21080225 13.47749361 -39.96484375 8.578125 C-39.55234375 7.94519531 -39.13984375 7.31226562 -38.71484375 6.66015625 C-34.44489954 0.97094081 -28.33968289 -2.27757896 -21.515625 -4.0625 C-13.89401482 -5.136295 -6.53660561 -4.12838249 0 0 Z " fill="#000000" transform="translate(85.96484375,80.421875)"/>
<path d="M0 0 C5.81803523 4.51148989 10.78036669 10.13901545 12.03515625 17.578125 C12.75465688 26.715783 13.36840078 35.67825654 8.03515625 43.578125 C7.62265625 44.20976563 7.21015625 44.84140625 6.78515625 45.4921875 C2.95081159 50.61190907 -1.83123852 53.8009522 -7.96484375 55.578125 C-16.46637427 56.54343823 -24.77662049 56.83600697 -31.96484375 51.578125 C-32.83109375 51.041875 -33.69734375 50.505625 -34.58984375 49.953125 C-42.1885878 42.35438095 -44.33368131 34.33078624 -44.42016602 23.93603516 C-44.24012711 16.00178336 -41.4813803 9.616522 -36.25390625 3.61328125 C-26.40755587 -5.49793437 -11.42294346 -7.21449061 0 0 Z " fill="#000000" transform="translate(196.96484375,80.421875)"/>
<path d="M0 0 C2.86258553 1.90395224 5.43590539 3.87181078 7 7 C7.39771327 11.77255923 7.47453429 14.08482672 5.25 18.375 C2.04742257 22.11134034 0.49569615 22.83381154 -4.375 23.375 C-8.67080432 22.93060645 -10.67783589 21.70408706 -14 19 C-16.6893186 14.9660221 -16.7926321 11.73961641 -16 7 C-14.26641537 3.60446648 -11.84983031 1.50118198 -8.5625 -0.4375 C-5.24117624 -1.16657107 -3.2646544 -0.999384 0 0 Z " fill="#F9F9F9" transform="translate(615,131)"/>
<path d="M0 0 C1.32 0 2.64 0 4 0 C4 4.29 4 8.58 4 13 C9.94 13 15.88 13 22 13 C22 8.71 22 4.42 22 0 C23.65 0 25.3 0 27 0 C27 10.23 27 20.46 27 31 C25.35 31 23.7 31 22 31 C22 26.71 22 22.42 22 18 C16.06 18 10.12 18 4 18 C4 22.29 4 26.58 4 31 C2.68 31 1.36 31 0 31 C0 20.77 0 10.54 0 0 Z " fill="#FAF8F6" transform="translate(359,169)"/>
<path d="M0 0 C2.475 0.495 2.475 0.495 5 1 C5.05830787 4.39576062 5.09369946 7.7913915 5.125 11.1875 C5.14175781 12.14720703 5.15851563 13.10691406 5.17578125 14.09570312 C5.18222656 15.02705078 5.18867188 15.95839844 5.1953125 16.91796875 C5.20578613 17.77156982 5.21625977 18.6251709 5.22705078 19.50463867 C4.87631348 23.35935479 3.62136353 26.17151529 1.3125 29.25 C-1.86600024 31.65535153 -4.02849715 31.93268639 -8 32 C-11.87940378 30.83617886 -14.24273951 29.85497152 -16.9375 26.8125 C-18.76027853 21.98749801 -18.8126948 17.86919804 -16.75 13.125 C-14.81140938 10.77099711 -13.91533206 9.86672034 -11 9 C-4.05008636 8.47495682 -4.05008636 8.47495682 -1 10 C-0.67 6.7 -0.34 3.4 0 0 Z M-11.25 14.625 C-13.21985834 16.92308586 -13.21985834 16.92308586 -13.5 20 C-13.1942241 23.04923991 -13.1942241 23.04923991 -11.4375 25.4375 C-8.97376884 27.33441535 -8.97376884 27.33441535 -5.375 26.9375 C-1.74483076 26.3249155 -1.74483076 26.3249155 0 23 C-0.15855572 18.04978561 -0.15855572 18.04978561 -2.8125 14.0625 C-6.15522648 12.43889 -8.2336474 12.44652312 -11.25 14.625 Z " fill="#FAF8F6" transform="translate(457,169)"/>
<path d="M0 0 C4.11401075 2.36336788 5.58042991 4.55832292 7 9 C7.1953125 12.11328125 7.1953125 12.11328125 7.125 15.3125 C7.10695313 16.38113281 7.08890625 17.44976562 7.0703125 18.55078125 C7.04710937 19.35902344 7.02390625 20.16726562 7 21 C4.23735711 21.59732819 1.83967231 22 -1 22 C-2.3921875 22.3403125 -2.3921875 22.3403125 -3.8125 22.6875 C-7.8731786 23.08560574 -9.62947362 22.24701759 -13 20 C-15.44340191 17.06791771 -15.96659534 15.31177679 -16.375 11.5 C-15.88148092 6.8938219 -14.41283302 4.57585221 -11.375 1.1875 C-7.64245373 -0.67877314 -4.08422735 -0.65639368 0 0 Z M-9.25 5.625 C-11.21985834 7.92308586 -11.21985834 7.92308586 -11.5 11 C-11.1942241 14.04923991 -11.1942241 14.04923991 -9.4375 16.4375 C-6.97376884 18.33441535 -6.97376884 18.33441535 -3.375 17.9375 C0.25516924 17.3249155 0.25516924 17.3249155 2 14 C1.84144428 9.04978561 1.84144428 9.04978561 -0.8125 5.0625 C-4.15522648 3.43889 -6.2336474 3.44652312 -9.25 5.625 Z " fill="#FBF9F7" transform="translate(482,178)"/>
<path d="M0 0 C3.08954459 1.77484476 4.53214578 3.23442037 6.375 6.25 C7.2419031 10.06437363 7.15820453 13.25286771 6 17 C3.44107954 20.53733123 1.8112289 21.75963588 -2.375 23 C-6.7289874 23 -9.23506872 22.17207574 -13 20 C-15.96015387 16.65789079 -16.58185442 13.46356309 -16.4296875 9 C-15.65395507 5.38931815 -13.60947818 3.54734775 -11 1 C-7.53472176 -0.73263912 -3.78892972 -0.4719774 0 0 Z M-9.25 5.625 C-11.21985834 7.92308586 -11.21985834 7.92308586 -11.5 11 C-11.1942241 14.04923991 -11.1942241 14.04923991 -9.4375 16.4375 C-6.97376884 18.33441535 -6.97376884 18.33441535 -3.375 17.9375 C0.25516924 17.3249155 0.25516924 17.3249155 2 14 C1.84144428 9.04978561 1.84144428 9.04978561 -0.8125 5.0625 C-4.15522648 3.43889 -6.2336474 3.44652312 -9.25 5.625 Z " fill="#FBF9F7" transform="translate(407,178)"/>
<path d="M0 0 C1.796875 0.12109375 1.796875 0.12109375 4 1 C6.39749771 4.83269702 8.09540358 8.88780318 10 13 C13.465 6.565 13.465 6.565 17 0 C18.32 0.33 19.64 0.66 21 1 C18.78157548 8.12696516 15.95177996 14.79580668 12.8125 21.5625 C12.34908203 22.57119141 11.88566406 23.57988281 11.40820312 24.61914062 C10.27627662 27.0813725 9.1401475 29.54156694 8 32 C6.68 31.67 5.36 31.34 4 31 C4.45502505 27.81482464 4.90915114 25.19329545 6.28515625 22.265625 C7.31009589 17.5833871 5.50724781 15.30224288 3.0625 11.375 C-1.09697517 4.54781619 -1.09697517 4.54781619 -0.60766602 1.78369141 C-0.40713623 1.19507324 -0.20660645 0.60645508 0 0 Z " fill="#FBF9F7" transform="translate(491,178)"/>
<path d="M0 0 C2.5625 1.3125 2.5625 1.3125 4 3 C4 3.99 4 4.98 4 6 C3.01 6.33 2.02 6.66 1 7 C0.01 6.34 -0.98 5.68 -2 5 C-4.62531524 4.83286431 -4.62531524 4.83286431 -7 5 C-7.33 5.66 -7.66 6.32 -8 7 C-7.21753906 7.27714844 -6.43507813 7.55429688 -5.62890625 7.83984375 C-4.61699219 8.20207031 -3.60507812 8.56429687 -2.5625 8.9375 C-1.55316406 9.29714844 -0.54382813 9.65679687 0.49609375 10.02734375 C3 11 3 11 4 12 C4.45857418 18.19075145 4.45857418 18.19075145 2.9375 20.875 C-0.51591971 22.88021145 -4.08652852 23.37154786 -8.01171875 22.609375 C-9.69242235 22.13209609 -11.34936129 21.57267057 -13 21 C-13.33 19.35 -13.66 17.7 -14 16 C-13.01 15.67 -12.02 15.34 -11 15 C-10.01 15.66 -9.02 16.32 -8 17 C-4.87478167 17.16699232 -4.87478167 17.16699232 -2 17 C-1.67 16.34 -1.34 15.68 -1 15 C-1.69867187 14.73445312 -2.39734375 14.46890625 -3.1171875 14.1953125 C-4.02726563 13.84210938 -4.93734375 13.48890625 -5.875 13.125 C-6.77992188 12.77695313 -7.68484375 12.42890625 -8.6171875 12.0703125 C-11 11 -11 11 -13 9 C-13.42151163 5.69815888 -13.62848726 3.81976599 -11.5625 1.125 C-7.71843595 -0.56263788 -4.13213276 -0.56864212 0 0 Z " fill="#FBF9F7" transform="translate(526,178)"/>
<path d="M0 0 C1.32 0 2.64 0 4 0 C4.33 8.91 4.66 17.82 5 27 C6.32 27 7.64 27 9 27 C8.67 28.32 8.34 29.64 8 31 C5.1875 31.3125 5.1875 31.3125 2 31 C-0.83489772 27.37020949 -1.36992978 24.61754737 -1.328125 20.078125 C-1.32296875 18.97082031 -1.3178125 17.86351562 -1.3125 16.72265625 C-1.291875 15.57667969 -1.27125 14.43070313 -1.25 13.25 C-1.24484375 12.08855469 -1.2396875 10.92710937 -1.234375 9.73046875 C-1.15412854 1.15412854 -1.15412854 1.15412854 0 0 Z " fill="#FBF9F7" transform="translate(417,169)"/>
<path d="M0 0 C1.32 0 2.64 0 4 0 C4 7.26 4 14.52 4 22 C2.68 22 1.36 22 0 22 C0 14.74 0 7.48 0 0 Z " fill="#FBF9F7" transform="translate(430,178)"/>
<path d="M0 0 C-0.33 1.65 -0.66 3.3 -1 5 C-2.65 4.67 -4.3 4.34 -6 4 C-6 2.68 -6 1.36 -6 0 C-3.50907189 -1.24546405 -2.58919267 -0.7767578 0 0 Z " fill="#FBF9F7" transform="translate(435,170)"/>
</svg>
